<svg width="93" height="30" viewBox="0 0 93 30" fill="none" xmlns="http://www.w3.org/2000/svg">
<path d="M75.2057 5.83291H91.0241C91.4811 5.79272 91.9402 5.88165 92.3492 6.08958C92.5407 6.17901 92.7033 6.32043 92.8183 6.49774C92.9333 6.67504 92.9962 6.88109 92.9999 7.09241V23.2749C92.9936 23.5034 92.9201 23.725 92.7884 23.9119C92.6567 24.0988 92.4728 24.2427 92.2597 24.3255C91.8132 24.502 91.337 24.5911 90.8569 24.5881H59.5038C58.9464 24.6111 58.3936 24.4788 57.907 24.2061C57.7625 24.1225 57.6416 24.0036 57.5554 23.8606C57.4693 23.7176 57.4209 23.5551 57.4146 23.3883V7.27148C57.4146 6.51638 57.6861 6.203 58.4114 5.95229C58.7298 5.85847 59.0621 5.8211 59.3933 5.84186L75.2057 5.83291ZM61.3124 18.1861V23.3943C61.3124 23.6092 61.3572 23.6927 61.584 23.6778H62.6227C63.518 23.6778 64.4313 23.7076 65.3088 23.3793C65.7266 23.2271 66.1206 23.0331 66.2788 22.5944C66.3938 22.2685 66.4514 21.9252 66.4489 21.5796V19.8933C66.4489 19.7292 66.5026 19.6665 66.6728 19.6784C66.9384 19.6993 67.204 19.6934 67.4697 19.7083C68.5547 19.7948 69.6431 19.5886 70.6214 19.1114C71.8643 18.498 72.846 17.4591 73.3881 16.1835C73.729 15.3838 73.9173 14.5274 73.9432 13.6585C73.9661 12.9597 73.8785 12.2617 73.6836 11.5902C73.4623 10.7846 73.0612 10.0397 72.5106 9.41144C71.777 8.60171 70.8541 7.98644 69.8245 7.62068C69.6514 7.55502 69.6186 7.62068 69.6126 7.77886C69.5947 8.73393 69.5708 9.689 69.5499 10.6441C69.5468 10.737 69.5654 10.8294 69.6042 10.9138C69.6431 10.9983 69.7011 11.0725 69.7738 11.1306C70.3324 11.6267 70.6866 12.3129 70.7676 13.0556C70.8471 13.5456 70.8072 14.0475 70.6513 14.5187C70.4954 14.99 70.2282 15.4167 69.8723 15.7627C69.4575 16.1894 68.9319 16.4921 68.3545 16.6365C67.7772 16.781 67.171 16.7616 66.6041 16.5804C65.0491 16.1656 64.2731 14.7598 64.2463 13.3511C64.2636 13.149 64.3006 12.9491 64.3567 12.7542C64.3954 12.4257 64.5032 12.109 64.673 11.8251C64.8427 11.5412 65.0706 11.2963 65.3416 11.1067C65.4262 11.0615 65.4979 10.9957 65.5501 10.9153C65.6023 10.8349 65.6332 10.7426 65.6401 10.6471C65.6401 9.69199 65.655 8.73393 65.6699 7.77886C65.6699 7.52816 65.5356 7.54009 65.3894 7.60874C64.1209 8.19074 63.0017 8.96375 62.2735 10.1844C61.6979 11.0775 61.3703 12.1076 61.3244 13.169C61.2945 14.8344 61.3124 16.5118 61.3124 18.1861ZM87.5261 11.3216H88.9498C89.1497 11.3216 89.2333 11.247 89.1497 11.053C89.0407 10.7693 88.9131 10.4931 88.7677 10.2262C87.7291 8.45338 86.2159 7.3252 84.1625 7.04465C83.2091 6.89852 82.2352 6.9627 81.3092 7.23268C80.0684 7.59444 78.9749 8.34186 78.1873 9.36667C77.3755 10.4637 76.9155 11.7812 76.8681 13.1452C76.8342 13.8276 76.9057 14.5111 77.08 15.1717C77.2843 16.0447 77.6821 16.8607 78.244 17.5594C78.7568 18.1894 79.3909 18.7101 80.1086 19.0905C80.8264 19.4709 81.6132 19.7033 82.4225 19.7739C83.3397 19.882 84.2694 19.7945 85.1504 19.5173C86.051 19.2531 86.8764 18.7796 87.559 18.1354C88.2626 17.4244 88.8087 16.5732 89.1617 15.6373C89.2214 15.4911 89.2751 15.3209 89.0005 15.3209H86.0398C85.9917 15.3171 85.9433 15.3243 85.8983 15.3418C85.8533 15.3594 85.8129 15.387 85.7801 15.4224C85.3915 15.8894 84.8843 16.243 84.3117 16.4461C83.8691 16.6058 83.3968 16.6667 82.9281 16.6244C82.4594 16.5821 82.0057 16.4378 81.5987 16.2014C80.1572 15.4075 79.617 13.5421 80.2109 12.0677C80.5195 11.293 81.1114 10.6648 81.8664 10.3106C82.6214 9.95635 83.4828 9.90273 84.2759 10.1606C84.8492 10.3388 85.3569 10.6825 85.7354 11.1485C85.7865 11.2129 85.8528 11.2638 85.9283 11.2966C86.0037 11.3294 86.0861 11.3431 86.1681 11.3365L87.5261 11.3216ZM68.953 9.0891V6.78201C68.9629 6.68065 68.9343 6.57928 68.8729 6.49801C68.8116 6.41675 68.7219 6.36151 68.6217 6.34327C68.0942 6.21427 67.5463 6.19194 67.01 6.27761C66.5683 6.3194 66.4519 6.47758 66.4519 6.81782V11.4022C66.4449 11.4636 66.4506 11.5258 66.4688 11.5849C66.487 11.644 66.5173 11.6987 66.5576 11.7455C66.598 11.7923 66.6476 11.8303 66.7034 11.857C66.7592 11.8837 66.8199 11.8985 66.8817 11.9006C67.4305 11.9722 67.9863 11.9722 68.5351 11.9006C68.5968 11.8982 68.6572 11.883 68.7126 11.8559C68.768 11.8288 68.8171 11.7904 68.8567 11.7432C68.8963 11.6959 68.9257 11.6409 68.9428 11.5817C68.9599 11.5224 68.9644 11.4603 68.956 11.3992C68.947 10.6411 68.953 9.87405 68.953 9.10402V9.0891Z" fill="#FB184D"/>
<path d="M7.80474 15.494C7.87553 15.1196 8.07457 14.7816 8.36763 14.5381C8.66069 14.2947 9.02944 14.1609 9.41045 14.1599C9.86113 14.1211 10.3058 14.1599 10.7714 14.139C10.966 14.1351 11.1563 14.0812 11.3242 13.9826C11.492 13.8841 11.6317 13.7441 11.7299 13.5761C11.8282 13.4081 11.8816 13.2176 11.8852 13.023C11.8888 12.8284 11.8424 12.6362 11.7504 12.4647C11.6831 12.3354 11.5801 12.2281 11.4537 12.1556C11.3272 12.0831 11.1826 12.0485 11.0371 12.0558H6.23783C5.87968 12.0558 5.84685 12.0886 5.84386 12.4438C5.84386 13.9032 5.81103 15.3627 5.82596 16.8222C5.84983 18.8248 5.70956 20.8245 5.68866 22.8242C5.68015 23.1605 5.56603 23.4856 5.36248 23.7534C5.15893 24.0212 4.87626 24.2182 4.55452 24.3165C3.69197 24.6388 2.79659 24.6567 1.90121 24.7015C1.3998 24.7284 0.89242 24.7015 0.391008 24.7015C0.0925489 24.7015 2.61518e-05 24.6358 0.00599534 24.3284C0.0239029 23.3405 0.00599534 22.3556 0.00599534 21.3677V7.93703C-0.0161561 7.56504 0.0231713 7.19193 0.122395 6.83273C0.170442 6.66778 0.26493 6.52014 0.394587 6.40742C0.524243 6.29469 0.683592 6.22165 0.85362 6.19701C2.01164 6.00898 3.17862 6.10449 4.34261 6.09554C6.90936 6.08161 9.47711 6.08161 12.0459 6.09554C12.7075 6.09379 13.3685 6.13567 14.0246 6.22089C14.577 6.31839 15.1027 6.53091 15.5677 6.84467C16.3572 7.38102 16.9716 8.13764 17.3346 9.02044C17.5817 9.51789 17.7373 10.0557 17.7942 10.6082C17.8121 10.844 17.9076 11.0589 17.9195 11.3007C17.9882 12.5751 17.5554 13.6883 16.9257 14.7718C16.3752 15.714 15.628 16.5263 14.735 17.1535C14.4144 17.148 14.0942 17.177 13.7799 17.24C13.1991 17.3818 12.595 17.3991 12.0071 17.2907C11.5947 17.2466 11.1865 17.1698 10.7864 17.0609C10.2989 16.9318 9.82274 16.7631 9.3627 16.5565C8.80593 16.2607 8.28346 15.9043 7.80474 15.494V15.494Z" fill="#06A897"/>
<path d="M18.5792 23.5375C19.194 22.9457 19.7609 22.306 20.2744 21.6244C21.2146 20.4306 22.0652 19.1591 22.9606 17.9056C23.462 17.1863 23.9932 16.479 24.5275 15.7806C24.5567 15.754 24.5803 15.722 24.597 15.6862C24.6137 15.6505 24.6232 15.6118 24.6248 15.5724C24.6265 15.533 24.6203 15.4936 24.6067 15.4566C24.5931 15.4196 24.5722 15.3857 24.5454 15.3567C23.9544 14.5539 23.3904 13.754 22.7934 12.9512C22.1965 12.1483 21.6384 11.3246 21.0534 10.5157C20.361 9.55768 19.6596 8.6056 18.9642 7.65053C18.6956 7.28044 18.43 6.90438 18.1554 6.53429C18.0957 6.45669 18.0061 6.38804 18.0539 6.28657C18.1017 6.18509 18.2121 6.22986 18.2927 6.23284C19.6566 6.25971 21.0176 6.29552 22.3786 6.32238C22.874 6.32238 23.3665 6.34029 23.8709 6.32238C23.9577 6.31588 24.0446 6.33263 24.1228 6.37093C24.201 6.40923 24.2675 6.46768 24.3156 6.54026C24.9573 7.40579 25.6079 8.26237 26.2526 9.12492C27.2703 10.5128 28.3149 11.8678 29.3148 13.2705C30.3146 14.6733 31.2428 16.0074 32.2098 17.3714C33.0515 18.5652 33.8812 19.759 34.7139 20.932C35.5466 22.1049 36.3554 23.2868 37.1881 24.4568C37.2194 24.4938 37.2411 24.5379 37.2515 24.5852C37.2619 24.6325 37.2607 24.6817 37.2478 24.7284C37.206 24.8597 37.0837 24.8239 36.9941 24.8149C35.1258 24.6567 33.2515 24.7731 31.3771 24.7403C31.0339 24.7403 30.9623 24.4419 30.822 24.2419C30.1684 23.3465 29.5476 22.4511 28.9178 21.5349C28.6612 21.1678 28.4015 20.8007 28.1538 20.4276C27.9837 20.1739 27.9329 20.1679 27.7538 20.4127C26.1559 22.689 24.1817 24.6764 21.916 26.2893C20.9279 26.9809 19.8731 27.5718 18.7672 28.0532C18.146 28.3339 17.5081 28.5761 16.8571 28.7785C16.2154 28.9665 15.5528 29.1038 14.8932 29.2381C13.3233 29.5604 11.7415 29.5097 10.1626 29.4291C9.34451 29.3682 8.53346 29.2344 7.73914 29.0292C6.95135 28.8561 6.17727 28.6257 5.4231 28.3397C5.53246 28.2804 5.65889 28.2604 5.78125 28.283C6.37817 28.283 6.97509 28.2592 7.572 28.283C8.23891 28.2849 8.9048 28.2309 9.56273 28.1219C10.1336 28.0392 10.6995 27.9256 11.258 27.7816C11.9193 27.623 12.5702 27.4236 13.2069 27.1847C13.9818 26.896 14.7265 26.5321 15.4304 26.0983C16.0535 25.7093 16.6516 25.2816 17.2212 24.8179C17.2518 24.7836 17.2779 24.7455 17.2988 24.7045C17.4375 24.6787 17.5789 24.6706 17.7196 24.6806C18.1492 24.7193 18.5809 24.7313 19.012 24.7164C19.2119 24.7164 19.2895 24.6776 19.1522 24.4657C18.9286 24.1777 18.7365 23.8665 18.5792 23.5375V23.5375Z" fill="#606261"/>
<path d="M47.3893 17.4343C46.7387 17.4637 46.087 17.4557 45.4374 17.4104C44.8792 17.3447 44.3211 17.3626 43.766 17.3119C42.1603 17.1716 40.7635 16.6046 39.7637 15.2854C39.3326 14.7128 39.0118 14.0651 38.8175 13.3752C38.6268 12.7244 38.5401 12.0475 38.5609 11.3696C38.5907 10.7747 38.7251 10.1898 38.9578 9.64149C39.295 8.73563 39.8691 7.93684 40.6202 7.32843C41.4613 6.67372 42.4521 6.2388 43.5034 6.06296C44.0153 5.9798 44.5338 5.94383 45.0524 5.95552H54.9791C55.2507 5.95552 55.2985 6.03909 55.2955 6.28681C55.2746 7.36126 55.2567 8.4387 55.2776 9.51316C55.2985 10.5876 54.5046 11.2681 53.6241 11.5427C52.6325 11.8134 51.6022 11.9143 50.5768 11.8411C48.9174 11.7874 47.261 11.7964 45.6045 11.7755C45.3811 11.7517 45.1553 11.7803 44.9449 11.859C44.5181 12.059 44.4077 12.2381 44.4763 12.7544C44.524 12.8927 44.6145 13.0121 44.7348 13.0953C44.855 13.1786 44.9987 13.2212 45.1449 13.217C45.5985 13.2409 46.0522 13.2499 46.5059 13.2439C47.8907 13.226 49.2726 13.2081 50.6544 13.2439C51.0066 13.2439 51.3558 13.3185 51.705 13.3603C51.6782 13.5095 51.5588 13.4588 51.4692 13.4648C51.2073 13.4589 50.9461 13.4962 50.6962 13.5752C50.1022 13.7696 49.5347 14.0373 49.0069 14.3721C48.4978 14.7675 48.0829 15.2711 47.7922 15.8465C47.5206 16.321 47.4878 16.897 47.3893 17.4343V17.4343ZM55.6536 15.8017C55.8805 15.942 55.9252 16.1986 56.0118 16.3986C56.3146 17.0648 56.4684 17.789 56.4625 18.5207C56.4416 18.8758 56.4625 19.231 56.4475 19.5862C56.4389 20.2068 56.3019 20.8189 56.0451 21.3839C55.7882 21.949 55.4172 22.4547 54.9552 22.8692C54.4027 23.4451 53.7259 23.8871 52.9765 24.1615C52.1489 24.4397 51.2827 24.5857 50.4097 24.5943H41.5246C40.1009 24.5585 39.0862 23.7676 38.737 22.5051C38.3549 21.1053 38.7937 19.619 40.3576 18.9236C40.7739 18.7523 41.2206 18.667 41.6708 18.6729C44.2883 18.6221 46.9028 18.7206 49.5203 18.6729C49.8081 18.6583 50.0893 18.5808 50.344 18.446C50.4442 18.4038 50.5277 18.3298 50.5816 18.2354C50.6356 18.141 50.6569 18.0315 50.6425 17.9237C50.6127 17.7089 50.4127 17.6253 50.2038 17.6044C50.1172 17.6044 50.0157 17.6044 49.9829 17.494C50.2368 17.486 50.4869 17.4303 50.7201 17.3298C52.287 16.897 53.8509 16.4344 55.4179 16.0136C55.4731 16.004 55.5245 15.979 55.5662 15.9415C55.6079 15.9041 55.6382 15.8556 55.6536 15.8017V15.8017Z" fill="#06A897"/>
<path d="M52.5648 1.14416C52.441 1.21182 52.2984 1.23698 52.1589 1.21579C51.5172 1.21579 50.8725 1.19192 50.2338 1.2337C48.3584 1.29968 46.508 1.6863 44.7631 2.3768C43.3589 2.9328 42.0499 3.70411 40.8831 4.663C39.4425 5.86819 38.167 7.25805 37.0897 8.79666C36.5435 9.54878 35.9645 10.274 35.4422 11.0381C34.6423 12.2081 33.8186 13.3601 32.9202 14.4584C32.6785 14.7569 32.6725 14.7569 32.4546 14.4584C31.8577 13.6029 31.2508 12.7473 30.634 11.8917C30.3027 11.4231 29.9774 10.9515 29.6252 10.5009C29.582 10.4554 29.5578 10.395 29.5578 10.3322C29.5578 10.2695 29.582 10.2091 29.6252 10.1636C30.2488 9.20475 30.9223 8.27925 31.6428 7.39092C32.5229 6.32983 33.4925 5.34627 34.5408 4.45109C35.5104 3.62664 36.5568 2.89705 37.6657 2.27234C38.5655 1.7576 39.5094 1.32411 40.4861 0.977026C41.1829 0.732373 41.8947 0.532985 42.6171 0.380107C43.9232 0.113973 45.2538 -0.0130838 46.5867 0.00106331C47.286 0.0213112 47.9836 0.0821 48.6759 0.183124C49.5167 0.286026 50.3474 0.45975 51.1591 0.702443C51.6363 0.820649 52.1058 0.968169 52.5648 1.14416V1.14416ZM18.5792 23.5376C18.7355 23.8665 18.9267 24.1776 19.1493 24.4658C19.2866 24.6777 19.209 24.7254 19.009 24.7165C18.5789 24.7312 18.1483 24.7193 17.7197 24.6807C17.5743 24.6746 17.4288 24.6876 17.2869 24.7195C16.7079 24.6538 16.1229 24.6658 15.5409 24.6538C14.744 24.6359 13.9441 24.618 13.1532 24.621C13.0651 24.6325 12.9754 24.618 12.8954 24.5793C12.8153 24.5406 12.7483 24.4794 12.7026 24.4031C12.2907 23.7346 11.8072 23.1078 11.3983 22.4422C10.7148 21.3499 9.98956 20.2814 9.35683 19.1592C9.20267 18.9426 9.07539 18.7081 8.97778 18.4608C9.07527 18.489 9.1752 18.508 9.27624 18.5175C10.6462 18.5175 12.0101 18.5921 13.3771 18.6339C14.0964 18.6548 14.8186 18.6339 15.5379 18.6339C16.296 19.8844 17.0481 21.138 17.8152 22.3796C18.0339 22.7881 18.2896 23.1758 18.5792 23.5376V23.5376Z" fill="#06A897"/>
<path d="M55.6538 15.8015C55.632 15.8504 55.5976 15.8925 55.554 15.9235C55.5104 15.9544 55.4593 15.9731 55.406 15.9776C53.8391 16.4134 52.2752 16.873 50.7083 17.2938C50.475 17.3943 50.225 17.45 49.9711 17.458L47.3894 17.4341C47.4879 16.8969 47.5207 16.3208 47.7923 15.8582C48.083 15.2829 48.498 14.7793 49.0071 14.3838C49.5349 14.0491 50.1023 13.7814 50.6964 13.587C50.9462 13.508 51.2074 13.4707 51.4694 13.4765C51.5589 13.4765 51.6783 13.5213 51.7051 13.3721C52.6521 13.3941 53.5634 13.7371 54.2898 14.345C54.4689 14.4973 54.6868 14.5808 54.8628 14.745C55.1783 15.0553 55.4449 15.4115 55.6538 15.8015V15.8015ZM15.5259 18.6309C14.8066 18.6309 14.0843 18.6488 13.365 18.6309C11.9981 18.5891 10.6341 18.5056 9.26421 18.5145C9.16316 18.505 9.06324 18.486 8.96575 18.4578C8.61255 17.9121 8.30318 17.3393 8.04052 16.7447C7.82163 16.3679 7.73446 15.9289 7.7928 15.4971C8.27542 15.9071 8.80192 16.2624 9.3627 16.5566C9.82563 16.7637 10.3048 16.9324 10.7953 17.061C11.1955 17.1699 11.6037 17.2467 12.016 17.2908C12.601 17.3979 13.202 17.3806 13.7799 17.2401C14.0942 17.1771 14.4144 17.1481 14.735 17.1536C14.9678 17.6639 15.2662 18.1355 15.5259 18.6309Z" fill="#187E73"/>
<path d="M61.3126 18.1861C61.3126 16.5118 61.2857 14.8344 61.3126 13.1601C61.3585 12.0986 61.6861 11.0685 62.2617 10.1755C62.9989 8.95477 64.1091 8.18176 65.3776 7.59976C65.5238 7.53111 65.6761 7.51918 65.6582 7.76988C65.6582 8.72495 65.6343 9.68301 65.6283 10.6381C65.6215 10.7337 65.5905 10.826 65.5383 10.9063C65.4861 10.9867 65.4144 11.0526 65.3299 11.0977C65.0588 11.2873 64.8309 11.5322 64.6612 11.8161C64.4914 12.1 64.3837 12.4167 64.3449 12.7452C64.2888 12.9401 64.2519 13.14 64.2345 13.3421C64.2614 14.7508 65.0374 16.1566 66.5923 16.5715C67.1598 16.7518 67.7663 16.7703 68.3437 16.6248C68.921 16.4793 69.4463 16.1755 69.8605 15.7477C70.2164 15.4018 70.4837 14.975 70.6395 14.5038C70.7954 14.0325 70.8353 13.5306 70.7558 13.0407C70.6748 12.2979 70.3206 11.6118 69.762 11.1156C69.6894 11.0576 69.6313 10.9833 69.5924 10.8989C69.5536 10.8144 69.535 10.722 69.5381 10.6291C69.559 9.67405 69.5829 8.71898 69.6008 7.76391C69.6008 7.61767 69.6396 7.54007 69.8127 7.60573C70.8423 7.97149 71.7652 8.58676 72.4988 9.39649C73.0495 10.0248 73.4505 10.7697 73.6718 11.5752C73.8667 12.2467 73.9543 12.9448 73.9315 13.6436C73.9047 14.5159 73.7144 15.3754 73.3703 16.1775C72.8283 17.4531 71.8466 18.492 70.6036 19.1054C69.6253 19.5826 68.537 19.7888 67.4519 19.7023C67.1863 19.7023 66.9206 19.7023 66.655 19.6724C66.4849 19.6724 66.4312 19.7232 66.4312 19.8873V21.5736C66.4336 21.9192 66.3761 22.2625 66.261 22.5884C66.1029 23.0271 65.7089 23.2211 65.291 23.3733C64.4225 23.6718 63.5003 23.6449 62.6049 23.6718C62.2587 23.6718 61.9125 23.6509 61.5663 23.6718C61.3394 23.6718 61.2947 23.6032 61.2947 23.3883V18.1801L61.3126 18.1861ZM87.5263 11.3365H86.1623C86.0803 11.343 85.9979 11.3293 85.9224 11.2965C85.847 11.2638 85.7807 11.2129 85.7296 11.1484C85.3527 10.6834 84.8471 10.3398 84.2761 10.1605C83.486 9.90546 82.6287 9.95915 81.8767 10.3108C81.1246 10.6624 80.5338 11.2859 80.223 12.0558C79.6261 13.5301 80.1693 15.3955 81.6108 16.1894C82.0177 16.4258 82.4715 16.5702 82.9402 16.6125C83.4089 16.6547 83.8811 16.5939 84.3238 16.4342C84.8964 16.231 85.4036 15.8774 85.7922 15.4104C85.825 15.375 85.8654 15.3475 85.9104 15.3299C85.9554 15.3123 86.0038 15.3052 86.0519 15.309H89.0126C89.2872 15.309 89.2335 15.4791 89.1738 15.6253C88.8187 16.5666 88.2684 17.422 87.5591 18.1354C86.8865 18.7908 86.0683 19.2776 85.1714 19.556C84.2905 19.8333 83.3607 19.9208 82.4435 19.8127C81.6343 19.7421 80.8474 19.5097 80.1297 19.1293C79.4119 18.7489 78.7779 18.2282 78.2651 17.5982C77.7031 16.8995 77.3053 16.0835 77.1011 15.2105C76.9268 14.5499 76.8553 13.8663 76.8892 13.1839C76.9365 11.82 77.3965 10.5025 78.2084 9.40544C78.996 8.38064 80.0894 7.63321 81.3303 7.27145C82.2563 7.00147 83.2301 6.93729 84.1835 7.08342C86.2369 7.36398 87.7501 8.49215 88.7888 10.265C88.9341 10.5319 89.0618 10.8081 89.1708 11.0917C89.2544 11.2857 89.1708 11.3603 88.9708 11.3603C88.4754 11.3335 88.0008 11.3365 87.5263 11.3365V11.3365Z" fill="#FEFBFC"/>
<path d="M68.953 9.10405V11.4111C68.9614 11.4722 68.9569 11.5344 68.9398 11.5936C68.9227 11.6529 68.8934 11.7079 68.8538 11.7551C68.8141 11.8024 68.765 11.8408 68.7096 11.8679C68.6543 11.895 68.5938 11.9102 68.5322 11.9126C67.9834 11.9842 67.4276 11.9842 66.8787 11.9126C66.8169 11.9105 66.7562 11.8956 66.7005 11.8689C66.6447 11.8422 66.5951 11.8043 66.5547 11.7575C66.5143 11.7106 66.4841 11.656 66.4659 11.5969C66.4477 11.5378 66.4419 11.4756 66.449 11.4141V6.82979C66.449 6.48954 66.5654 6.33136 67.0071 6.28958C67.5433 6.20391 68.0913 6.22623 68.6188 6.35524C68.72 6.37214 68.8112 6.42681 68.8737 6.50822C68.9363 6.58964 68.9657 6.69174 68.956 6.79397C68.9471 7.56698 68.953 8.33402 68.953 9.10405V9.10405Z" fill="#FEFBFC"/>
</svg>
